<svg width="10" height="10" viewBox="0 0 10 10" fill="none" xmlns="http://www.w3.org/2000/svg">
<g clip-path="url(#clip0_922_375)">
<path d="M0.833496 1.25H3.3335C3.77552 1.25 4.19945 1.42559 4.51201 1.73816C4.82457 2.05072 5.00016 2.47464 5.00016 2.91667V8.75C5.00016 8.41848 4.86847 8.10054 4.63405 7.86612C4.39963 7.6317 4.08168 7.5 3.75016 7.5H0.833496V1.25Z" stroke="#3FDCFF" stroke-linecap="round" stroke-linejoin="round"/>
<path d="M9.16667 1.25H6.66667C6.22464 1.25 5.80072 1.42559 5.48816 1.73816C5.17559 2.05072 5 2.47464 5 2.91667V8.75C5 8.41848 5.1317 8.10054 5.36612 7.86612C5.60054 7.6317 5.91848 7.5 6.25 7.5H9.16667V1.25Z" stroke="#3FDCFF" stroke-linecap="round" stroke-linejoin="round"/>
</g>
<defs>
<clipPath id="clip0_922_375">
<rect width="10" height="10" fill="white"/>
</clipPath>
</defs>
</svg>
