<svg width="375" height="209" viewBox="0 0 375 209" fill="none" xmlns="http://www.w3.org/2000/svg">
<g clip-path="url(#clip0_859_556)">
<path d="M0 168.825L9 168.514C18 168.1 36 167.478 53.8 162.813C71.7 158.149 89.3 149.442 107.2 148.302C125 147.058 143 153.277 160.8 156.698C178.7 160.222 196.3 160.844 214.2 162.295C232 163.643 250 165.716 267.8 162.295C285.7 158.771 303.3 149.857 321.2 146.851C339 143.948 357 147.058 366 148.613L375 150.167V209.251H366C357 209.251 339 209.251 321.2 209.251C303.3 209.251 285.7 209.251 267.8 209.251C250 209.251 232 209.251 214.2 209.251C196.3 209.251 178.7 209.251 160.8 209.251C143 209.251 125 209.251 107.2 209.251C89.3 209.251 71.7 209.251 53.8 209.251C36 209.251 18 209.251 9 209.251H0V168.825Z" fill="#1C4756"/>
<path d="M0 160.532L9 162.605C18 164.678 36 168.825 53.8 168.617C71.7 168.514 89.3 163.953 107.2 164.989C125 166.026 143 172.66 160.8 176.599C178.7 180.538 196.3 181.989 214.2 179.397C232 176.806 250 170.172 267.8 166.959C285.7 163.642 303.3 163.642 321.2 164.678C339 165.715 357 167.788 366 168.825L375 169.861V209.25H366C357 209.25 339 209.25 321.2 209.25C303.3 209.25 285.7 209.25 267.8 209.25C250 209.25 232 209.25 214.2 209.25C196.3 209.25 178.7 209.25 160.8 209.25C143 209.25 125 209.25 107.2 209.25C89.3 209.25 71.7 209.25 53.8 209.25C36 209.25 18 209.25 9 209.25H0V160.532Z" fill="#0C1E27"/>
<path d="M0 189.556L9 187.276C18 185.099 36 180.538 53.8 180.538C71.7 180.538 89.3 185.099 107.2 186.446C125 187.794 143 186.135 160.8 185.203C178.7 184.373 196.3 184.373 214.2 185.721C232 187.172 250 189.867 267.8 189.349C285.7 188.831 303.3 185.099 321.2 183.544C339 181.989 357 182.611 366 183.026L375 183.337V209.251H366C357 209.251 339 209.251 321.2 209.251C303.3 209.251 285.7 209.251 267.8 209.251C250 209.251 232 209.251 214.2 209.251C196.3 209.251 178.7 209.251 160.8 209.251C143 209.251 125 209.251 107.2 209.251C89.3 209.251 71.7 209.251 53.8 209.251C36 209.251 18 209.251 9 209.251H0V189.556Z" fill="black"/>
</g>
<defs>
<clipPath id="clip0_859_556">
<rect width="375" height="207.311" fill="white" transform="translate(0 0.90332)"/>
</clipPath>
</defs>
</svg>
