<svg width="1200" height="630" viewBox="0 0 151 79" fill="none" xmlns="http://www.w3.org/2000/svg">
<rect width="150" height="78.75" fill="black"/>
<g filter="url(#filter0_d_977_1107)">
<path d="M25.5386 47.4281L25.8233 48.1974L26.5 50.5795L24.0719 50.911L25.5386 47.4281Z" fill="#3FDCFF"/>
<path d="M16.3872 29.9219L30.4551 37.6715L24.0724 50.9125L10.0138 43.1316L16.3872 29.9219Z" fill="#3FDCFF"/>
<path d="M40.1948 26L46.9304 41.9611L35.8256 46.6728L28.7913 31.6221L40.1948 26Z" fill="#3FDCFF"/>
<g filter="url(#filter1_d_977_1107)">
<path d="M21.5498 38.5586L35.5815 33.2007L40.1515 44.8684L26.2741 50.6182L21.5498 38.5586Z" fill="white"/>
</g>
<g filter="url(#filter2_d_977_1107)">
<path d="M57.4249 45V31.9091H62.334C63.3397 31.9091 64.1835 32.0966 64.8653 32.4716C65.5514 32.8466 66.0691 33.3622 66.4186 34.0185C66.7722 34.6705 66.9491 35.4119 66.9491 36.2429C66.9491 37.0824 66.7722 37.8281 66.4186 38.4801C66.0649 39.1321 65.5428 39.6456 64.8525 40.0206C64.1622 40.3913 63.312 40.5767 62.3021 40.5767H59.0485V38.6271H61.9825C62.5705 38.6271 63.0521 38.5249 63.4271 38.3203C63.8021 38.1158 64.0791 37.8345 64.258 37.4766C64.4413 37.1186 64.5329 36.7074 64.5329 36.2429C64.5329 35.7784 64.4413 35.3693 64.258 35.0156C64.0791 34.6619 63.7999 34.3871 63.4207 34.1911C63.0457 33.9908 62.562 33.8906 61.9697 33.8906H59.7964V45H57.4249ZM70.6806 39.2472V45H68.3667V31.9091H70.6294V36.8501H70.7445C70.9746 36.2962 71.3304 35.8594 71.812 35.5398C72.2978 35.2159 72.9157 35.054 73.6657 35.054C74.3475 35.054 74.9419 35.1967 75.449 35.4822C75.9561 35.7678 76.3482 36.1854 76.6252 36.7351C76.9064 37.2848 77.0471 37.956 77.0471 38.7486V45H74.7331V39.1065C74.7331 38.446 74.5627 37.9325 74.2218 37.5661C73.8851 37.1953 73.4121 37.0099 72.8027 37.0099C72.3936 37.0099 72.0272 37.0994 71.7033 37.2784C71.3837 37.4531 71.1323 37.7067 70.949 38.0391C70.7701 38.3714 70.6806 38.7741 70.6806 39.2472ZM79.9524 48.6818C79.637 48.6818 79.3451 48.6563 79.0767 48.6051C78.8124 48.5582 78.6015 48.5028 78.4438 48.4389L78.9808 46.6364C79.3174 46.7344 79.6178 46.7813 79.8821 46.777C80.1463 46.7727 80.3785 46.6896 80.5788 46.5277C80.7833 46.37 80.9559 46.1058 81.0965 45.7351L81.2947 45.2045L77.7343 35.1818H80.1889L82.4517 42.5966H82.5539L84.8231 35.1818H87.284L83.3529 46.1889C83.1697 46.7088 82.9268 47.1541 82.6242 47.5249C82.3217 47.8999 81.9509 48.1854 81.512 48.3814C81.0774 48.5817 80.5575 48.6818 79.9524 48.6818Z" fill="white"/>
<path d="M89.4415 45V31.9091H94.4529C95.3989 31.9091 96.1851 32.0582 96.8115 32.3565C97.4422 32.6506 97.9131 33.0533 98.2242 33.5646C98.5395 34.076 98.6972 34.6555 98.6972 35.3033C98.6972 35.8359 98.5949 36.2919 98.3904 36.6712C98.1858 37.0462 97.911 37.3509 97.5658 37.5852C97.2206 37.8196 96.835 37.9879 96.4088 38.0902V38.218C96.8733 38.2436 97.3186 38.3864 97.7448 38.6463C98.1752 38.902 98.5267 39.2642 98.7995 39.733C99.0722 40.2017 99.2086 40.7685 99.2086 41.4332C99.2086 42.1108 99.0445 42.7202 98.7164 43.2614C98.3882 43.7983 97.8939 44.2223 97.2334 44.5334C96.5729 44.8445 95.7419 45 94.7405 45H89.4415ZM91.813 43.0185H94.3634C95.2242 43.0185 95.8442 42.8544 96.2235 42.5263C96.607 42.1939 96.7987 41.7678 96.7987 41.2479C96.7987 40.8601 96.7029 40.5107 96.5111 40.1996C96.3193 39.8842 96.0466 39.6371 95.6929 39.4581C95.3392 39.2749 94.9174 39.1832 94.4273 39.1832H91.813V43.0185ZM91.813 37.4766H94.1588C94.5679 37.4766 94.9365 37.402 95.2647 37.2528C95.5928 37.0994 95.8506 36.8842 96.0381 36.6072C96.2299 36.326 96.3257 35.9936 96.3257 35.6101C96.3257 35.103 96.1468 34.6854 95.7888 34.3572C95.4351 34.0291 94.9088 33.8651 94.21 33.8651H91.813V37.4766ZM104.912 45.1918C103.953 45.1918 103.122 44.9808 102.419 44.5589C101.716 44.1371 101.171 43.5469 100.783 42.7884C100.399 42.0298 100.207 41.1435 100.207 40.1293C100.207 39.1151 100.399 38.2266 100.783 37.4638C101.171 36.701 101.716 36.1087 102.419 35.6868C103.122 35.2649 103.953 35.054 104.912 35.054C105.871 35.054 106.702 35.2649 107.405 35.6868C108.108 36.1087 108.651 36.701 109.035 37.4638C109.423 38.2266 109.617 39.1151 109.617 40.1293C109.617 41.1435 109.423 42.0298 109.035 42.7884C108.651 43.5469 108.108 44.1371 107.405 44.5589C106.702 44.9808 105.871 45.1918 104.912 45.1918ZM104.925 43.3381C105.445 43.3381 105.879 43.1953 106.229 42.9098C106.578 42.62 106.838 42.2322 107.009 41.7464C107.183 41.2607 107.271 40.7195 107.271 40.1229C107.271 39.522 107.183 38.9787 107.009 38.4929C106.838 38.0028 106.578 37.6129 106.229 37.3232C105.879 37.0334 105.445 36.8885 104.925 36.8885C104.392 36.8885 103.949 37.0334 103.595 37.3232C103.246 37.6129 102.984 38.0028 102.809 38.4929C102.639 38.9787 102.553 39.522 102.553 40.1229C102.553 40.7195 102.639 41.2607 102.809 41.7464C102.984 42.2322 103.246 42.62 103.595 42.9098C103.949 43.1953 104.392 43.3381 104.925 43.3381ZM115.323 45.1918C114.364 45.1918 113.533 44.9808 112.83 44.5589C112.127 44.1371 111.582 43.5469 111.194 42.7884C110.81 42.0298 110.619 41.1435 110.619 40.1293C110.619 39.1151 110.81 38.2266 111.194 37.4638C111.582 36.701 112.127 36.1087 112.83 35.6868C113.533 35.2649 114.364 35.054 115.323 35.054C116.282 35.054 117.113 35.2649 117.816 35.6868C118.519 36.1087 119.063 36.701 119.446 37.4638C119.834 38.2266 120.028 39.1151 120.028 40.1293C120.028 41.1435 119.834 42.0298 119.446 42.7884C119.063 43.5469 118.519 44.1371 117.816 44.5589C117.113 44.9808 116.282 45.1918 115.323 45.1918ZM115.336 43.3381C115.856 43.3381 116.29 43.1953 116.64 42.9098C116.989 42.62 117.249 42.2322 117.42 41.7464C117.594 41.2607 117.682 40.7195 117.682 40.1229C117.682 39.522 117.594 38.9787 117.42 38.4929C117.249 38.0028 116.989 37.6129 116.64 37.3232C116.29 37.0334 115.856 36.8885 115.336 36.8885C114.803 36.8885 114.36 37.0334 114.006 37.3232C113.657 37.6129 113.395 38.0028 113.22 38.4929C113.05 38.9787 112.964 39.522 112.964 40.1229C112.964 40.7195 113.05 41.2607 113.22 41.7464C113.395 42.2322 113.657 42.62 114.006 42.9098C114.36 43.1953 114.803 43.3381 115.336 43.3381ZM123.561 41.919L123.555 39.1257H123.925L127.454 35.1818H130.158L125.817 40.0142H125.338L123.561 41.919ZM121.452 45V31.9091H123.766V45H121.452ZM127.614 45L124.418 40.532L125.977 38.902L130.381 45H127.614ZM138.92 37.777L136.81 38.0071C136.751 37.794 136.646 37.5938 136.497 37.4062C136.352 37.2188 136.156 37.0675 135.909 36.9524C135.662 36.8374 135.359 36.7798 135.001 36.7798C134.52 36.7798 134.115 36.8842 133.787 37.093C133.463 37.3018 133.303 37.5724 133.307 37.9048C133.303 38.1903 133.408 38.4226 133.621 38.6016C133.838 38.7805 134.196 38.9276 134.695 39.0426L136.369 39.4006C137.298 39.6009 137.989 39.9183 138.44 40.353C138.896 40.7876 139.126 41.3565 139.131 42.0597C139.126 42.6776 138.945 43.223 138.587 43.696C138.234 44.1648 137.741 44.5312 137.111 44.7955C136.48 45.0597 135.756 45.1918 134.937 45.1918C133.736 45.1918 132.768 44.9403 132.035 44.4375C131.302 43.9304 130.866 43.2251 130.725 42.3217L132.981 42.1044C133.084 42.5476 133.301 42.8821 133.633 43.108C133.966 43.3338 134.398 43.4467 134.931 43.4467C135.481 43.4467 135.922 43.3338 136.254 43.108C136.591 42.8821 136.759 42.603 136.759 42.2706C136.759 41.9893 136.65 41.7571 136.433 41.5739C136.22 41.3906 135.888 41.25 135.436 41.152L133.761 40.8004C132.82 40.6044 132.123 40.2741 131.671 39.8097C131.219 39.3409 130.996 38.7486 131 38.0327C130.996 37.4276 131.16 36.9034 131.492 36.4602C131.829 36.0128 132.295 35.6676 132.892 35.4247C133.493 35.1776 134.185 35.054 134.969 35.054C136.12 35.054 137.025 35.299 137.686 35.7891C138.351 36.2791 138.762 36.9418 138.92 37.777Z" fill="#3FDCFF"/>
</g>
</g>
<defs>
<filter id="filter0_d_977_1107" x="6.01367" y="22" width="137.117" height="32.9121" filterUnits="userSpaceOnUse" color-interpolation-filters="sRGB">
<feFlood flood-opacity="0" result="BackgroundImageFix"/>
<feColorMatrix in="SourceAlpha" type="matrix" values="0 0 0 0 0 0 0 0 0 0 0 0 0 0 0 0 0 0 127 0" result="hardAlpha"/>
<feOffset/>
<feGaussianBlur stdDeviation="2"/>
<feComposite in2="hardAlpha" operator="out"/>
<feColorMatrix type="matrix" values="0 0 0 0 0 0 0 0 0 0 0 0 0 0 0 0 0 0 0.12 0"/>
<feBlend mode="normal" in2="BackgroundImageFix" result="effect1_dropShadow_977_1107"/>
<feBlend mode="normal" in="SourceGraphic" in2="effect1_dropShadow_977_1107" result="shape"/>
</filter>
<filter id="filter1_d_977_1107" x="18.5498" y="30.2012" width="24.6016" height="23.417" filterUnits="userSpaceOnUse" color-interpolation-filters="sRGB">
<feFlood flood-opacity="0" result="BackgroundImageFix"/>
<feColorMatrix in="SourceAlpha" type="matrix" values="0 0 0 0 0 0 0 0 0 0 0 0 0 0 0 0 0 0 127 0" result="hardAlpha"/>
<feOffset/>
<feGaussianBlur stdDeviation="1.5"/>
<feComposite in2="hardAlpha" operator="out"/>
<feColorMatrix type="matrix" values="0 0 0 0 0 0 0 0 0 0 0 0 0 0 0 0 0 0 0.28 0"/>
<feBlend mode="normal" in2="BackgroundImageFix" result="effect1_dropShadow_977_1107"/>
<feBlend mode="normal" in="SourceGraphic" in2="effect1_dropShadow_977_1107" result="shape"/>
</filter>
<filter id="filter2_d_977_1107" x="46.4248" y="20.9092" width="103.706" height="38.7725" filterUnits="userSpaceOnUse" color-interpolation-filters="sRGB">
<feFlood flood-opacity="0" result="BackgroundImageFix"/>
<feColorMatrix in="SourceAlpha" type="matrix" values="0 0 0 0 0 0 0 0 0 0 0 0 0 0 0 0 0 0 127 0" result="hardAlpha"/>
<feOffset/>
<feGaussianBlur stdDeviation="5.5"/>
<feComposite in2="hardAlpha" operator="out"/>
<feColorMatrix type="matrix" values="0 0 0 0 0 0 0 0 0 0 0 0 0 0 0 0 0 0 0.15 0"/>
<feBlend mode="normal" in2="BackgroundImageFix" result="effect1_dropShadow_977_1107"/>
<feBlend mode="normal" in="SourceGraphic" in2="effect1_dropShadow_977_1107" result="shape"/>
</filter>
</defs>
</svg>
