<svg width="130" height="28" viewBox="0 0 130 28" fill="none" xmlns="http://www.w3.org/2000/svg">
<path d="M15.5386 21.3589L15.8233 22.1257L16.5 24.5L14.0719 24.8305L15.5386 21.3589Z" fill="#3FDCFF"/>
<path d="M6.38672 3.90869L20.4546 11.6331L14.0719 24.8311L0.0133247 17.0755L6.38672 3.90869Z" fill="#3FDCFF"/>
<path d="M30.1953 0L36.9309 15.9092L25.8261 20.6056L18.7918 5.60383L30.1953 0Z" fill="#3FDCFF"/>
<g filter="url(#filter0_d_777_54)">
<path d="M11.5498 12.5176L25.5815 7.17714L30.1515 18.8069L16.2741 24.538L11.5498 12.5176Z" fill="white"/>
</g>
<path d="M47.4249 19V5.90909H52.334C53.3397 5.90909 54.1835 6.09659 54.8653 6.47159C55.5514 6.84659 56.0691 7.36222 56.4186 8.01847C56.7722 8.67045 56.9491 9.41193 56.9491 10.2429C56.9491 11.0824 56.7722 11.8281 56.4186 12.4801C56.0649 13.1321 55.5428 13.6456 54.8525 14.0206C54.1622 14.3913 53.312 14.5767 52.3021 14.5767H49.0485V12.6271H51.9825C52.5705 12.6271 53.0521 12.5249 53.4271 12.3203C53.8021 12.1158 54.0791 11.8345 54.258 11.4766C54.4413 11.1186 54.5329 10.7074 54.5329 10.2429C54.5329 9.77841 54.4413 9.36932 54.258 9.01562C54.0791 8.66193 53.7999 8.38707 53.4207 8.19105C53.0457 7.99077 52.562 7.89062 51.9697 7.89062H49.7964V19H47.4249ZM60.6806 13.2472V19H58.3667V5.90909H60.6294V10.8501H60.7445C60.9746 10.2962 61.3304 9.85937 61.812 9.53977C62.2978 9.21591 62.9157 9.05398 63.6657 9.05398C64.3475 9.05398 64.9419 9.19673 65.449 9.48224C65.9561 9.76776 66.3482 10.1854 66.6252 10.7351C66.9064 11.2848 67.0471 11.956 67.0471 12.7486V19H64.7331V13.1065C64.7331 12.446 64.5627 11.9325 64.2218 11.5661C63.8851 11.1953 63.4121 11.0099 62.8027 11.0099C62.3936 11.0099 62.0272 11.0994 61.7033 11.2784C61.3837 11.4531 61.1323 11.7067 60.949 12.0391C60.7701 12.3714 60.6806 12.7741 60.6806 13.2472ZM69.9524 22.6818C69.637 22.6818 69.3451 22.6563 69.0767 22.6051C68.8124 22.5582 68.6015 22.5028 68.4438 22.4389L68.9808 20.6364C69.3174 20.7344 69.6178 20.7813 69.8821 20.777C70.1463 20.7727 70.3785 20.6896 70.5788 20.5277C70.7833 20.37 70.9559 20.1058 71.0965 19.7351L71.2947 19.2045L67.7343 9.18182H70.1889L72.4517 16.5966H72.5539L74.8231 9.18182H77.284L73.3529 20.1889C73.1697 20.7088 72.9268 21.1541 72.6242 21.5249C72.3217 21.8999 71.9509 22.1854 71.512 22.3814C71.0774 22.5817 70.5575 22.6818 69.9524 22.6818Z" fill="white"/>
<path d="M79.4415 19V5.90909H84.4529C85.3989 5.90909 86.1851 6.05824 86.8115 6.35653C87.4422 6.65057 87.9131 7.05327 88.2242 7.56463C88.5395 8.07599 88.6972 8.65554 88.6972 9.30327C88.6972 9.83594 88.5949 10.2919 88.3904 10.6712C88.1858 11.0462 87.911 11.3509 87.5658 11.5852C87.2206 11.8196 86.835 11.9879 86.4088 12.0902V12.218C86.8733 12.2436 87.3186 12.3864 87.7448 12.6463C88.1752 12.902 88.5267 13.2642 88.7995 13.733C89.0722 14.2017 89.2086 14.7685 89.2086 15.4332C89.2086 16.1108 89.0445 16.7202 88.7164 17.2614C88.3882 17.7983 87.8939 18.2223 87.2334 18.5334C86.5729 18.8445 85.7419 19 84.7405 19H79.4415ZM81.813 17.0185H84.3634C85.2242 17.0185 85.8442 16.8544 86.2235 16.5263C86.607 16.1939 86.7987 15.7678 86.7987 15.2479C86.7987 14.8601 86.7029 14.5107 86.5111 14.1996C86.3193 13.8842 86.0466 13.6371 85.6929 13.4581C85.3392 13.2749 84.9174 13.1832 84.4273 13.1832H81.813V17.0185ZM81.813 11.4766H84.1588C84.5679 11.4766 84.9365 11.402 85.2647 11.2528C85.5928 11.0994 85.8506 10.8842 86.0381 10.6072C86.2299 10.326 86.3257 9.99361 86.3257 9.61009C86.3257 9.10298 86.1468 8.68537 85.7888 8.35724C85.4351 8.02912 84.9088 7.86506 84.21 7.86506H81.813V11.4766ZM94.912 19.1918C93.9532 19.1918 93.1222 18.9808 92.4191 18.5589C91.716 18.1371 91.1705 17.5469 90.7827 16.7884C90.3992 16.0298 90.2074 15.1435 90.2074 14.1293C90.2074 13.1151 90.3992 12.2266 90.7827 11.4638C91.1705 10.701 91.716 10.1087 92.4191 9.68679C93.1222 9.26491 93.9532 9.05398 94.912 9.05398C95.8708 9.05398 96.7018 9.26491 97.4049 9.68679C98.108 10.1087 98.6513 10.701 99.0349 11.4638C99.4226 12.2266 99.6165 13.1151 99.6165 14.1293C99.6165 15.1435 99.4226 16.0298 99.0349 16.7884C98.6513 17.5469 98.108 18.1371 97.4049 18.5589C96.7018 18.9808 95.8708 19.1918 94.912 19.1918ZM94.9248 17.3381C95.4447 17.3381 95.8793 17.1953 96.2287 16.9098C96.5782 16.62 96.8381 16.2322 97.0086 15.7464C97.1833 15.2607 97.2706 14.7195 97.2706 14.1229C97.2706 13.522 97.1833 12.9787 97.0086 12.4929C96.8381 12.0028 96.5782 11.6129 96.2287 11.3232C95.8793 11.0334 95.4447 10.8885 94.9248 10.8885C94.3921 10.8885 93.9489 11.0334 93.5952 11.3232C93.2458 11.6129 92.9837 12.0028 92.809 12.4929C92.6385 12.9787 92.5533 13.522 92.5533 14.1229C92.5533 14.7195 92.6385 15.2607 92.809 15.7464C92.9837 16.2322 93.2458 16.62 93.5952 16.9098C93.9489 17.1953 94.3921 17.3381 94.9248 17.3381ZM105.323 19.1918C104.364 19.1918 103.533 18.9808 102.83 18.5589C102.127 18.1371 101.582 17.5469 101.194 16.7884C100.81 16.0298 100.619 15.1435 100.619 14.1293C100.619 13.1151 100.81 12.2266 101.194 11.4638C101.582 10.701 102.127 10.1087 102.83 9.68679C103.533 9.26491 104.364 9.05398 105.323 9.05398C106.282 9.05398 107.113 9.26491 107.816 9.68679C108.519 10.1087 109.063 10.701 109.446 11.4638C109.834 12.2266 110.028 13.1151 110.028 14.1293C110.028 15.1435 109.834 16.0298 109.446 16.7884C109.063 17.5469 108.519 18.1371 107.816 18.5589C107.113 18.9808 106.282 19.1918 105.323 19.1918ZM105.336 17.3381C105.856 17.3381 106.29 17.1953 106.64 16.9098C106.989 16.62 107.249 16.2322 107.42 15.7464C107.594 15.2607 107.682 14.7195 107.682 14.1229C107.682 13.522 107.594 12.9787 107.42 12.4929C107.249 12.0028 106.989 11.6129 106.64 11.3232C106.29 11.0334 105.856 10.8885 105.336 10.8885C104.803 10.8885 104.36 11.0334 104.006 11.3232C103.657 11.6129 103.395 12.0028 103.22 12.4929C103.05 12.9787 102.964 13.522 102.964 14.1229C102.964 14.7195 103.05 15.2607 103.22 15.7464C103.395 16.2322 103.657 16.62 104.006 16.9098C104.36 17.1953 104.803 17.3381 105.336 17.3381ZM113.561 15.919L113.555 13.1257H113.925L117.454 9.18182H120.158L115.817 14.0142H115.338L113.561 15.919ZM111.452 19V5.90909H113.766V19H111.452ZM117.614 19L114.418 14.532L115.977 12.902L120.381 19H117.614ZM128.92 11.777L126.81 12.0071C126.751 11.794 126.646 11.5938 126.497 11.4062C126.352 11.2188 126.156 11.0675 125.909 10.9524C125.662 10.8374 125.359 10.7798 125.001 10.7798C124.52 10.7798 124.115 10.8842 123.787 11.093C123.463 11.3018 123.303 11.5724 123.307 11.9048C123.303 12.1903 123.408 12.4226 123.621 12.6016C123.838 12.7805 124.196 12.9276 124.695 13.0426L126.369 13.4006C127.298 13.6009 127.989 13.9183 128.44 14.353C128.896 14.7876 129.126 15.3565 129.131 16.0597C129.126 16.6776 128.945 17.223 128.587 17.696C128.234 18.1648 127.741 18.5312 127.111 18.7955C126.48 19.0597 125.756 19.1918 124.937 19.1918C123.736 19.1918 122.768 18.9403 122.035 18.4375C121.302 17.9304 120.866 17.2251 120.725 16.3217L122.981 16.1044C123.084 16.5476 123.301 16.8821 123.633 17.108C123.966 17.3338 124.398 17.4467 124.931 17.4467C125.481 17.4467 125.922 17.3338 126.254 17.108C126.591 16.8821 126.759 16.603 126.759 16.2706C126.759 15.9893 126.65 15.7571 126.433 15.5739C126.22 15.3906 125.888 15.25 125.436 15.152L123.761 14.8004C122.82 14.6044 122.123 14.2741 121.671 13.8097C121.219 13.3409 120.996 12.7486 121 12.0327C120.996 11.4276 121.16 10.9034 121.492 10.4602C121.829 10.0128 122.295 9.66761 122.892 9.42472C123.493 9.17756 124.185 9.05398 124.969 9.05398C126.12 9.05398 127.025 9.29901 127.686 9.78906C128.351 10.2791 128.762 10.9418 128.92 11.777Z" fill="#3FDCFF"/>
<defs>
<filter id="filter0_d_777_54" x="8.5498" y="4.17725" width="24.6016" height="23.3608" filterUnits="userSpaceOnUse" color-interpolation-filters="sRGB">
<feFlood flood-opacity="0" result="BackgroundImageFix"/>
<feColorMatrix in="SourceAlpha" type="matrix" values="0 0 0 0 0 0 0 0 0 0 0 0 0 0 0 0 0 0 127 0" result="hardAlpha"/>
<feOffset/>
<feGaussianBlur stdDeviation="1.5"/>
<feComposite in2="hardAlpha" operator="out"/>
<feColorMatrix type="matrix" values="0 0 0 0 0 0 0 0 0 0 0 0 0 0 0 0 0 0 0.28 0"/>
<feBlend mode="normal" in2="BackgroundImageFix" result="effect1_dropShadow_777_54"/>
<feBlend mode="normal" in="SourceGraphic" in2="effect1_dropShadow_777_54" result="shape"/>
</filter>
</defs>
</svg>
